Coordinates
version=1
nRows=27
nColumns=12
inDegrees=yes

Units are S.I. units (second, meters, Newtons, ...)
Angles are in degrees

endheader
time	SC_y	SC_z	SC_x	AC_y	AC_z	AC_x	GH_y	GH_z	GH_yy	EL_x	PS_y
       0.0              -18.03          14.35          55.09          60.05          4.831          8.934         -42.98          12.13          3.097          6.522          59.84
   0.02769              -18.03          14.35          55.09          60.05          4.828          8.931         -42.98          12.14          3.111          6.533          59.84
   0.05538              -18.03          14.36          55.09          60.05          4.825          8.927         -42.98          12.15          3.126          6.545          59.83
   0.08307              -18.04          14.36          55.09          60.05          4.821          8.924         -42.98          12.16          3.142          6.557          59.83
    0.1108              -18.04          14.36          55.09          60.04          4.817           8.92         -42.99          12.17          3.158           6.57          59.82
    0.1384              -18.04          14.36          55.09          60.04          4.813          8.916         -42.99          12.19          3.177          6.584          59.82
    0.1661              -18.05          14.36          55.09          60.04          4.809          8.912         -42.99           12.2          3.196            6.6          59.82
    0.1938              -18.05          14.36          55.09          60.04          4.804          8.907          -43.0          12.22          3.216          6.616          59.81
    0.2215              -18.05          14.36          55.08          60.03          4.799          8.902          -43.0          12.23          3.238          6.633          59.81
    0.2492              -18.06          14.37          55.08          60.03          4.794          8.897          -43.0          12.25          3.262          6.651           59.8
    0.2769              -18.06          14.37          55.08          60.02          4.788          8.891         -43.01          12.27          3.287          6.671           59.8
    0.3046              -18.07          14.37          55.08          60.02          4.782          8.885         -43.01          12.29          3.315          6.693          59.79
    0.3323              -18.08          14.37          55.08          60.01          4.775          8.879         -43.02          12.31          3.344          6.716          59.78
      0.36              -18.08          14.37          55.07          60.01          4.768          8.871         -43.02          12.34          3.376          6.741          59.77
    0.3877              -18.09          14.38          55.07           60.0           4.76          8.864         -43.03          12.36           3.41          6.768          59.77
    0.4153               -18.1          14.38          55.07           60.0          4.751          8.856         -43.03          12.39          3.448          6.797          59.76
     0.443               -18.1          14.38          55.07          59.99          4.742          8.846         -43.04          12.42          3.488          6.829          59.75
    0.4707              -18.11          14.39          55.06          59.98          4.732          8.837         -43.04          12.46          3.533          6.864          59.74
    0.4984              -18.12          14.39          55.06          59.98          4.721          8.826         -43.05          12.49          3.581          6.901          59.73
    0.5261              -18.13          14.39          55.05          59.97          4.709          8.814         -43.06          12.53          3.634          6.943          59.72
    0.5538              -18.14           14.4          55.05          59.96          4.696          8.801         -43.07          12.58          3.692          6.988           59.7
    0.5815              -18.16           14.4          55.05          59.95          4.681          8.787         -43.08          12.62          3.756          7.038          59.69
    0.6092              -18.17          14.41          55.04          59.94          4.665          8.771         -43.09          12.68          3.826          7.094          59.67
    0.6369              -18.19          14.41          55.04          59.92          4.648          8.754          -43.1          12.74          3.904          7.155          59.65
    0.6645               -18.2          14.42          55.03          59.91          4.628          8.735         -43.11           12.8          3.991          7.223          59.63
    0.6922              -18.22          14.43          55.02          59.89          4.606          8.713         -43.13          12.88          4.088          7.299          59.61
    0.7199              -18.24          14.44          55.01          59.88          4.581          8.689         -43.15          12.96          4.197          7.384          59.59
